<svg xmlns="http://www.w3.org/2000/svg" viewBox="0 0 45 45"><defs><style>.cls-1{fill:none;}</style></defs><g id="Layer_2" data-name="Layer 2"><g id="Capa_1" data-name="Capa 1"><path d="M26.7,13a6.2,6.2,0,1,1-1.1-8.91,3.46,3.46,0,0,0,.22-.31,4,4,0,0,1,7,3.86c-.52,1-1.06,2-1.61,3a.91.91,0,0,0,.07,1.16.83.83,0,0,0,1.1.13.8.8,0,0,1,1.08.26.87.87,0,0,1,0,1.15,4,4,0,0,1-6.36.08C26.9,13.23,26.8,13.09,26.7,13ZM19.22,5.54c.3.25.61.49.88.76a1.56,1.56,0,0,0,1.28.51,2.19,2.19,0,0,1,1.95,1.06,1.12,1.12,0,0,1,0,1.53c-.21.28-.44.54-.69.85L25.13,12A4.39,4.39,0,0,0,25,5.84,4.33,4.33,0,0,0,19.22,5.54ZM30,13.06a.84.84,0,0,0-.07-.16,2.74,2.74,0,0,1-.2-3.33c.53-.93,1-1.88,1.53-2.84A2.07,2.07,0,0,0,31,4.33a2.14,2.14,0,0,0-2.3-.76,2.44,2.44,0,0,0-1.61,1.56.69.69,0,0,0,0,.53,6.48,6.48,0,0,1,.84,4.8A2.2,2.2,0,0,0,30,13.06Zm-6.41,0-2.17-1.5c-.83-.58-.81-1.22.06-1.74.35-.21.6-.51.42-.92a.64.64,0,0,0-.9-.3,1.13,1.13,0,0,1-1.28-.32C19.15,7.8,18.6,7.34,18,6.87a4.38,4.38,0,0,0,5.52,6.19Z"/><path d="M16.54,41.5h0c0-.61,0-1.18,0-1.75a1.48,1.48,0,0,0-.67-1.41,6.73,6.73,0,0,1-1.75-8.78,26.69,26.69,0,0,1,2.41-3,1,1,0,0,0,0-1.52,3.66,3.66,0,0,1-.84-1.17,2.55,2.55,0,0,1,.5-2.78,7.81,7.81,0,0,1,7.15-2.44,4.48,4.48,0,0,1,4,3.25c.55,1.82,1.15,3.62,1.71,5.43a.91.91,0,0,1-.46,1.12l-7.45,4.36A.72.72,0,0,1,20,32.42a.86.86,0,0,1,.43-1.23l5.35-3.13a.89.89,0,0,0,.4-1.25A.87.87,0,0,0,25,26.48c-1.93,1.12-3.89,2.22-5.78,3.41a2.57,2.57,0,0,0-.64,3.59,2.43,2.43,0,0,0,3.38.87c2.55-1.47,5.09-3,7.62-4.47A2.29,2.29,0,0,0,30.8,28a4.73,4.73,0,0,0-.22-1.63c-.64-2-1.3-4-2-6a4.77,4.77,0,0,0-2.62-2.67,8.56,8.56,0,0,0-5.45-.75,9.56,9.56,0,0,0-5.72,3,4,4,0,0,0,0,5.42c.11.13.2.26.24.3-.85,1.13-1.71,2.16-2.44,3.29a6.77,6.77,0,0,0-1.13,4.27,9,9,0,0,0,3.09,6.31.78.78,0,0,1,.23.51c0,.69,0,1.38,0,2.07s.24,1.11.92,1.17h.87Z"/><path d="M30.79,42.09c-.54-2.88-1.09-5.75-1.64-8.63a.89.89,0,1,0-1.73.36l.69,3.67c.22,1.18.45,2.37.67,3.56l.46,2.23H30C30.63,43.21,30.92,42.82,30.79,42.09Z"/><rect class="cls-1" width="45" height="45"/></g></g></svg>