<svg xmlns="http://www.w3.org/2000/svg" viewBox="0 0 30 30"><defs><style>.cls-1{fill:none;}</style></defs><g id="Layer_2" data-name="Layer 2"><g id="Capa_1" data-name="Capa 1"><path d="M17.8,8.64a4.14,4.14,0,1,1-.73-5.94,2.43,2.43,0,0,0,.14-.2,2.65,2.65,0,0,1,4.64,2.57c-.35.66-.71,1.32-1.07,2a.59.59,0,0,0,0,.77.56.56,0,0,0,.74.09.52.52,0,0,1,.71.17.57.57,0,0,1,0,.77A2.7,2.7,0,0,1,18,8.9C17.93,8.82,17.87,8.73,17.8,8.64Zm-5-5c.19.17.4.33.58.51a1.07,1.07,0,0,0,.86.34,1.48,1.48,0,0,1,1.3.71.76.76,0,0,1,0,1l-.46.56L16.75,8a2.94,2.94,0,0,0-.1-4.1A2.87,2.87,0,0,0,12.82,3.69Zm7.16,5a.38.38,0,0,0-.05-.11,1.83,1.83,0,0,1-.13-2.22c.35-.62.69-1.26,1-1.89a1.39,1.39,0,0,0-.16-1.61,1.43,1.43,0,0,0-1.54-.5,1.63,1.63,0,0,0-1.07,1,.45.45,0,0,0,0,.36A4.26,4.26,0,0,1,18.62,7,1.47,1.47,0,0,0,20,8.71Zm-4.27,0-1.45-1c-.55-.39-.54-.82,0-1.17.23-.14.4-.33.28-.6a.43.43,0,0,0-.6-.21.76.76,0,0,1-.86-.21c-.35-.32-.72-.62-1.09-.94A2.91,2.91,0,0,0,15.71,8.7Z"/><path d="M11,27.67h0c0-.41,0-.79,0-1.17a1,1,0,0,0-.45-.94,4.49,4.49,0,0,1-1.17-5.85,17.39,17.39,0,0,1,1.61-2,.65.65,0,0,0,0-1,2.36,2.36,0,0,1-.55-.78A1.67,1.67,0,0,1,10.77,14a5.2,5.2,0,0,1,4.76-1.63,3,3,0,0,1,2.69,2.17c.36,1.21.77,2.41,1.14,3.62a.6.6,0,0,1-.31.75l-5,2.9a.48.48,0,0,1-.75-.24.57.57,0,0,1,.28-.82c1.19-.69,2.39-1.38,3.58-2.09a.58.58,0,0,0,.26-.82.57.57,0,0,0-.79-.22c-1.29.74-2.59,1.47-3.85,2.27a1.71,1.71,0,0,0-.44,2.39,1.62,1.62,0,0,0,2.26.58c1.7-1,3.39-2,5.08-3a1.5,1.5,0,0,0,.81-1.28,3.12,3.12,0,0,0-.14-1.09c-.43-1.34-.87-2.68-1.36-4a3.15,3.15,0,0,0-1.74-1.77,5.7,5.7,0,0,0-3.63-.5,6.36,6.36,0,0,0-3.82,2,2.68,2.68,0,0,0,0,3.61l.16.2c-.57.75-1.14,1.44-1.63,2.19a4.45,4.45,0,0,0-.75,2.84,6.07,6.07,0,0,0,2.05,4.22.47.47,0,0,1,.16.33c0,.46,0,.92,0,1.38s.15.74.61.78H11Z"/><path d="M20.52,28.06c-.35-1.92-.72-3.84-1.09-5.75a.59.59,0,1,0-1.15.23c.15.82.31,1.64.46,2.45l.45,2.38.31,1.48H20C20.42,28.81,20.61,28.54,20.52,28.06Z"/><rect class="cls-1" width="30" height="30"/></g></g></svg>