<svg xmlns="http://www.w3.org/2000/svg" viewBox="0 0 15 15"><defs><style>.cls-1{fill:none;}</style></defs><g id="Layer_2" data-name="Layer 2"><g id="Capa_1" data-name="Capa 1"><path d="M8.9,4.32a2.08,2.08,0,0,1-3.05.15A2.06,2.06,0,0,1,8.53,1.35l.08-.1a1.32,1.32,0,0,1,2.31,1.28c-.17.34-.35.67-.53,1a.3.3,0,0,0,0,.39.28.28,0,0,0,.37,0,.28.28,0,0,1,.36.09.29.29,0,0,1,0,.38A1.34,1.34,0,0,1,9,4.45ZM6.41,1.85a3.47,3.47,0,0,1,.29.25.53.53,0,0,0,.43.17.74.74,0,0,1,.65.35.37.37,0,0,1,0,.51c-.07.1-.14.18-.23.29L8.38,4a1.47,1.47,0,0,0-.05-2A1.43,1.43,0,0,0,6.41,1.85ZM10,4.35s0,0,0,0A.9.9,0,0,1,9.9,3.19c.18-.31.34-.63.51-.95a.7.7,0,0,0-.08-.8.73.73,0,0,0-.77-.25A.81.81,0,0,0,9,1.71a.28.28,0,0,0,0,.18,2.09,2.09,0,0,1,.28,1.6A.73.73,0,0,0,10,4.35Zm-2.14,0-.72-.5c-.28-.19-.27-.4,0-.58.12-.07.2-.17.14-.3a.21.21,0,0,0-.3-.1.39.39,0,0,1-.43-.11L6,2.29A1.45,1.45,0,0,0,6.21,4,1.42,1.42,0,0,0,7.85,4.35Z"/><path d="M5.51,13.83h0c0-.2,0-.39,0-.58a.47.47,0,0,0-.22-.47,2.25,2.25,0,0,1-.58-2.93,8.44,8.44,0,0,1,.8-1,.31.31,0,0,0,0-.5A1.13,1.13,0,0,1,5.22,8,.86.86,0,0,1,5.38,7a2.62,2.62,0,0,1,2.39-.81A1.48,1.48,0,0,1,9.11,7.29c.18.61.38,1.21.57,1.81a.3.3,0,0,1-.15.37L7,10.93a.24.24,0,0,1-.37-.12.28.28,0,0,1,.14-.41L8.6,9.35a.29.29,0,0,0,.13-.41.28.28,0,0,0-.4-.11C7.69,9.2,7,9.57,6.41,10a.86.86,0,0,0-.22,1.2.81.81,0,0,0,1.13.29L9.86,10a.79.79,0,0,0,.41-.64,1.64,1.64,0,0,0-.08-.54c-.21-.68-.43-1.35-.67-2a1.63,1.63,0,0,0-.88-.89,2.84,2.84,0,0,0-1.81-.25,3.16,3.16,0,0,0-1.91,1,1.34,1.34,0,0,0,0,1.8l.08.1c-.28.38-.57.72-.81,1.1a2.31,2.31,0,0,0-.38,1.42,3.05,3.05,0,0,0,1,2.11.23.23,0,0,1,.08.17c0,.23,0,.46,0,.69s.08.37.3.39h.29Z"/><path d="M10.26,14l-.54-2.88a.3.3,0,1,0-.58.12c.08.41.15.82.23,1.23s.15.79.22,1.18l.16.75H10A.29.29,0,0,0,10.26,14Z"/><rect class="cls-1" width="15" height="15"/></g></g></svg>