<svg xmlns="http://www.w3.org/2000/svg" viewBox="0 0 15 15"><defs><style>.cls-1{fill-rule:evenodd;}.cls-2{fill:none;}</style></defs><g id="Layer_2" data-name="Layer 2"><g id="Capa_1" data-name="Capa 1"><path class="cls-1" d="M7.5,1.45h0A6.06,6.06,0,0,1,13.55,7.5h0A6.06,6.06,0,0,1,7.5,13.55h0a6.06,6.06,0,0,1-6-6.05h0a6.06,6.06,0,0,1,6.05-6Zm0,.67A5.39,5.39,0,0,0,2.12,7.5h0A5.39,5.39,0,0,0,7.5,12.88h0A5.39,5.39,0,0,0,12.88,7.5h0A5.39,5.39,0,0,0,7.5,2.12Z"/><path d="M8.3,6.73v3.54a.79.79,0,0,1-.8.8h0a.79.79,0,0,1-.8-.8V6.73a.82.82,0,0,1,.23-.57.8.8,0,0,1,.57-.24h0a.8.8,0,0,1,.57.24.82.82,0,0,1,.23.57Z"/><path d="M7.5,3.93a.81.81,0,0,1,.58.24.82.82,0,0,1,.25.58.84.84,0,0,1-.25.59.82.82,0,0,1-1.16,0,.84.84,0,0,1-.25-.59.82.82,0,0,1,.25-.58.81.81,0,0,1,.58-.24Z"/><rect class="cls-2" width="15" height="15"/></g></g></svg>