<svg xmlns="http://www.w3.org/2000/svg" viewBox="0 0 30 30"><defs><style>.cls-1{fill-rule:evenodd;}.cls-2{fill:none;}</style></defs><g id="Layer_2" data-name="Layer 2"><g id="Capa_1" data-name="Capa 1"><path class="cls-1" d="M15,2.9h0A12.14,12.14,0,0,1,27.1,15h0A12.14,12.14,0,0,1,15,27.1h0A12.14,12.14,0,0,1,2.9,15h0A12.14,12.14,0,0,1,15,2.9Zm0,1.34A10.79,10.79,0,0,0,4.24,15h0A10.79,10.79,0,0,0,15,25.76h0A10.79,10.79,0,0,0,25.76,15h0A10.79,10.79,0,0,0,15,4.24Z"/><path d="M16.61,13.45v7.09A1.6,1.6,0,0,1,15,22.15h0a1.6,1.6,0,0,1-1.61-1.61V13.45a1.6,1.6,0,0,1,.47-1.13A1.64,1.64,0,0,1,15,11.85h0a1.64,1.64,0,0,1,1.14.47,1.6,1.6,0,0,1,.47,1.13Z"/><path d="M15,7.85a1.65,1.65,0,0,1,1.17.49,1.62,1.62,0,0,1,.48,1.16,1.65,1.65,0,1,1-3.3,0,1.62,1.62,0,0,1,.48-1.16A1.65,1.65,0,0,1,15,7.85Z"/><rect class="cls-2" width="30" height="30"/></g></g></svg>