<svg xmlns="http://www.w3.org/2000/svg" viewBox="0 0 45 45"><defs><style>.cls-1{fill-rule:evenodd;}.cls-2{fill:none;}</style></defs><g id="Layer_2" data-name="Layer 2"><g id="Capa_1" data-name="Capa 1"><path class="cls-1" d="M22.5,4.35h0A18.21,18.21,0,0,1,40.65,22.5h0A18.21,18.21,0,0,1,22.5,40.65h0A18.21,18.21,0,0,1,4.35,22.5h0A18.21,18.21,0,0,1,22.5,4.35Zm0,2A16.18,16.18,0,0,0,6.36,22.5h0A16.18,16.18,0,0,0,22.5,38.64h0A16.18,16.18,0,0,0,38.64,22.5h0A16.18,16.18,0,0,0,22.5,6.36Z"/><path d="M24.91,20.18V30.81a2.42,2.42,0,0,1-2.41,2.41h0a2.42,2.42,0,0,1-2.41-2.41V20.18a2.42,2.42,0,0,1,2.41-2.41h0a2.42,2.42,0,0,1,2.41,2.41Z"/><path d="M22.5,11.78a2.51,2.51,0,0,1,1.75.72,2.48,2.48,0,1,1-3.5,0,2.51,2.51,0,0,1,1.75-.72Z"/><rect class="cls-2" width="45" height="45"/></g></g></svg>