<svg xmlns="http://www.w3.org/2000/svg" viewBox="0 0 30 30"><defs><style>.cls-1{fill:none;}</style></defs><g id="Layer_2" data-name="Layer 2"><g id="Capa_1" data-name="Capa 1"><path d="M19.43,25.19l.67.65a.61.61,0,0,1,.07.92.6.6,0,0,1-.9-.06l-1.08-1.08a.6.6,0,0,1,0-.94l.7-.72c-1.28-1.42-2.83-2.58-3.89-4.2A35.16,35.16,0,0,1,11.1,24l.69.7a.6.6,0,0,1,0,1q-.52.54-1.08,1.08a.59.59,0,0,1-.88.05.6.6,0,0,1,.05-.9l.66-.66s0,0,0,0L5.42,20a1.2,1.2,0,0,1-.12.21C4.15,21.4,3,22.55,1.85,23.71a.65.65,0,0,1-.69.22A.58.58,0,0,1,.87,23c0-.06.1-.11.15-.17C2.34,21.53,3.65,20.21,5,18.9A.64.64,0,0,1,6,18.9l.35.37c.29-.29.58-.57.85-.86,0-.05,0-.17,0-.26,0-1,0-2,0-3A12.76,12.76,0,0,1,8.43,9.9C9.25,8.06,10,6.22,10.86,4.38a2.1,2.1,0,0,1,2-1.31,2.16,2.16,0,0,1,2.06,1.19,1.34,1.34,0,0,1,.11.21l.14-.23a2.16,2.16,0,0,1,2-1.17,2,2,0,0,1,2,1.22c1,2.34,2,4.69,3,7.06a10.58,10.58,0,0,1,.62,4.07c0,.92,0,1.83,0,2.75a.57.57,0,0,0,.14.35c.23.25.47.49.74.76l.43-.45a.6.6,0,0,1,.92,0l4.09,4.08a.6.6,0,1,1-.86.83l-3.48-3.49a1.25,1.25,0,0,1-.14-.2Zm-9.16-2,.42-.44c.82-.83,1.65-1.66,2.48-2.48a3.81,3.81,0,0,0,1.17-2.42,51.17,51.17,0,0,0,.05-5.54.83.83,0,0,0-.79-.77.88.88,0,0,0-1,.94v3.19a.58.58,0,0,1-.58.61.58.58,0,0,1-.6-.59c0-1.09,0-2.17,0-3.26a1.81,1.81,0,0,1,.34-1.15,2.24,2.24,0,0,0,.35-.71c.57-1.59,1.16-3.17,1.72-4.76a1.43,1.43,0,0,0,0-.74A1,1,0,0,0,13,4.28a1,1,0,0,0-1.09.66q-1,2.26-2,4.54c-.28.64-.54,1.3-.79,1.95a9.72,9.72,0,0,0-.65,3.66c0,1.08,0,2.17,0,3.25a1.07,1.07,0,0,1-.38.9c-.3.26-.57.57-.81.8Zm12.47-3.08a8.85,8.85,0,0,0-.76-.74,1.27,1.27,0,0,1-.46-1.12c0-1.14,0-2.27,0-3.41a9,9,0,0,0-.49-3c-.83-2.4-2-4.67-3-7a1.13,1.13,0,0,0-.57-.5.94.94,0,0,0-1.1.23,1,1,0,0,0-.23,1.15l1.75,4.83A1.43,1.43,0,0,0,18,11a2.13,2.13,0,0,1,.52,1.48c0,1,0,2.1,0,3.15a1.1,1.1,0,0,1,0,.18.61.61,0,0,1-.64.43.59.59,0,0,1-.52-.6V12.56a2,2,0,0,0,0-.35.88.88,0,0,0-1.75.12c0,1.71,0,3.43,0,5.14a3.6,3.6,0,0,0,1,2.41c.43.47.88.94,1.34,1.39.61.61,1.23,1.2,1.84,1.79ZM15,6.19H15l-1.49,4.1a2.19,2.19,0,0,1,1.52.64,2.21,2.21,0,0,1,1.52-.64Z"/><rect class="cls-1" width="30" height="30"/></g></g></svg>