<svg xmlns="http://www.w3.org/2000/svg" viewBox="0 0 15 15"><defs><style>.cls-1{fill:none;}</style></defs><g id="Layer_2" data-name="Layer 2"><g id="Capa_1" data-name="Capa 1"><path d="M9.71,12.6l.34.32a.31.31,0,0,1,0,.46.3.3,0,0,1-.45,0l-.54-.54a.3.3,0,0,1,0-.47c.13-.12.25-.25.36-.36A17.58,17.58,0,0,1,7.5,9.88,17.58,17.58,0,0,1,5.55,12l.35.35a.31.31,0,0,1,0,.49l-.54.54a.31.31,0,0,1-.44,0,.3.3,0,0,1,0-.45l.33-.33h0L2.71,10a.37.37,0,0,1-.06.1L.92,11.85A.32.32,0,0,1,.58,12a.3.3,0,0,1-.15-.47l.08-.08,2-2c.2-.19.34-.19.53,0l.18.19.42-.43a.21.21,0,0,0,0-.14c0-.49,0-1,0-1.49A6.3,6.3,0,0,1,4.22,5C4.62,4,5,3.11,5.43,2.19a1.08,1.08,0,0,1,1-.66,1.1,1.1,0,0,1,1,.6s0,.06.06.1l.06-.11a1.12,1.12,0,0,1,1-.59,1,1,0,0,1,1,.62c.52,1.16,1,2.34,1.51,3.52a5.25,5.25,0,0,1,.31,2c0,.46,0,.92,0,1.37a.31.31,0,0,0,.07.18c.11.13.23.24.37.38L12,9.42a.3.3,0,0,1,.46,0l2,2.05a.3.3,0,1,1-.42.41c-.59-.58-1.17-1.16-1.75-1.75a.27.27,0,0,1-.06-.1Zm-4.57-1,.2-.21,1.25-1.24a2,2,0,0,0,.58-1.21,23.44,23.44,0,0,0,0-2.78.41.41,0,0,0-.39-.38.44.44,0,0,0-.49.47V7.81A.29.29,0,0,1,6,8.12a.29.29,0,0,1-.3-.3c0-.54,0-1.08,0-1.62a.92.92,0,0,1,.17-.58,1.22,1.22,0,0,0,.18-.36l.85-2.37a.82.82,0,0,0,0-.38.5.5,0,0,0-.45-.37A.54.54,0,0,0,6,2.47C5.62,3.23,5.28,4,5,4.74c-.14.32-.27.65-.4,1a5.1,5.1,0,0,0-.33,1.82c0,.55,0,1.09,0,1.63a.55.55,0,0,1-.19.45,5,5,0,0,0-.4.4ZM11.37,10A4.44,4.44,0,0,0,11,9.66a.62.62,0,0,1-.23-.56c0-.56,0-1.13,0-1.7a4.33,4.33,0,0,0-.25-1.47C10.1,4.72,9.52,3.59,9,2.42a.65.65,0,0,0-.29-.25.48.48,0,0,0-.55.12.54.54,0,0,0-.12.58c.3.8.59,1.6.88,2.41,0,.07,0,.16.08.22a1.07,1.07,0,0,1,.26.74c0,.53,0,1,0,1.58a.19.19,0,0,1,0,.08.29.29,0,0,1-.58-.08V6.28a1.09,1.09,0,0,0,0-.18.44.44,0,0,0-.48-.35.42.42,0,0,0-.4.42c0,.85,0,1.71,0,2.56a1.81,1.81,0,0,0,.48,1.21c.21.24.44.47.66.7l.93.89ZM7.51,3.09h0L6.74,5.14a1.17,1.17,0,0,1,.76.32,1.12,1.12,0,0,1,.76-.32Z"/><rect class="cls-1" width="15" height="15"/></g></g></svg>