<svg xmlns="http://www.w3.org/2000/svg" viewBox="0 0 45 45"><defs><style>.cls-1{fill:none;}</style></defs><g id="Layer_2" data-name="Layer 2"><g id="Capa_1" data-name="Capa 1"><path d="M29.14,37.79c.32.31.67.64,1,1A.9.9,0,1,1,28.9,40l-1.62-1.62a.89.89,0,0,1,0-1.4l1.06-1.08c-1.93-2.13-4.25-3.87-5.84-6.29-1.59,2.41-3.9,4.17-5.84,6.29l1,1.05a.91.91,0,0,1,0,1.46l-1.62,1.62a.9.9,0,1,1-1.25-1.27l1-1v0l-7.7-7.7a1.41,1.41,0,0,1-.19.3L2.77,35.56a1,1,0,0,1-1,.34.88.88,0,0,1-.45-1.39,2.73,2.73,0,0,1,.23-.25l5.92-5.91a.94.94,0,0,1,1.59,0c.17.17.33.35.52.56.45-.45.88-.86,1.28-1.29.08-.08.07-.26.07-.4,0-1.49,0-3,0-4.47a19,19,0,0,1,1.72-7.91c1.22-2.75,2.41-5.52,3.64-8.26a3.17,3.17,0,0,1,2.94-2,3.27,3.27,0,0,1,3.1,1.79l.16.31.2-.34a3.27,3.27,0,0,1,3-1.76,3.05,3.05,0,0,1,2.94,1.84Q31,11.69,33.15,17a16,16,0,0,1,.93,6.11c0,1.37,0,2.75,0,4.12a.88.88,0,0,0,.21.53c.34.38.7.73,1.11,1.15.23-.25.43-.47.64-.68a.89.89,0,0,1,1.38,0q3.08,3.06,6.13,6.13a.9.9,0,1,1-1.28,1.25l-5.23-5.25a1.41,1.41,0,0,1-.2-.3ZM15.41,34.72l.62-.65c1.24-1.24,2.48-2.49,3.73-3.72a5.87,5.87,0,0,0,1.76-3.63,79.61,79.61,0,0,0,.06-8.32,1.24,1.24,0,0,0-1.17-1.15,1.33,1.33,0,0,0-1.48,1.42c0,1.59,0,3.18,0,4.77a.89.89,0,1,1-1.77,0c0-1.62,0-3.25,0-4.88a2.73,2.73,0,0,1,.51-1.73,3.45,3.45,0,0,0,.53-1.07c.85-2.38,1.73-4.75,2.57-7.13a2.23,2.23,0,0,0,.07-1.12A1.48,1.48,0,0,0,19.5,6.42a1.57,1.57,0,0,0-1.64,1c-1,2.27-2,4.53-3,6.81-.42,1-.81,1.94-1.19,2.93a14.84,14.84,0,0,0-1,5.48c0,1.63,0,3.26,0,4.89a1.63,1.63,0,0,1-.57,1.34c-.46.4-.86.85-1.21,1.2Zm18.7-4.62A13.29,13.29,0,0,0,33,29a1.89,1.89,0,0,1-.69-1.68c0-1.7,0-3.41,0-5.11a13.86,13.86,0,0,0-.75-4.42c-1.24-3.61-3-7-4.49-10.51a1.72,1.72,0,0,0-.86-.75,1.42,1.42,0,0,0-1.65.35,1.55,1.55,0,0,0-.35,1.73l2.63,7.23a2,2,0,0,0,.25.67,3.29,3.29,0,0,1,.77,2.22c0,1.58,0,3.15,0,4.73a1.09,1.09,0,0,1,0,.26.91.91,0,0,1-1,.65.88.88,0,0,1-.77-.9V18.84a3.08,3.08,0,0,0,0-.53,1.3,1.3,0,0,0-1.42-1.06,1.26,1.26,0,0,0-1.2,1.25c0,2.56,0,5.13,0,7.7a5.38,5.38,0,0,0,1.43,3.62c.65.71,1.32,1.41,2,2.09.92.91,1.86,1.8,2.77,2.69ZM22.54,9.28h-.09l-2.24,6.15a3.36,3.36,0,0,1,2.29,1,3.33,3.33,0,0,1,2.28-1Z"/><rect class="cls-1" width="45" height="45"/></g></g></svg>